<?xml version="1.0" encoding="UTF-8"?>
<svg fill="#FFF" enable-background="new 0 0 1703.269 1661.083" version="1.1" viewBox="0 0 1703.269 1661.083" xmlns="http://www.w3.org/2000/svg">
 <path d="m1671.6 1245.2c-1.296-4.445-6.176-2.919-9.77-3.221-16.789-1.411-33.522 5-50 1.846-14.53-2.782-28.926-0.085-37.673-1.839-16.794 0-28.147 1.134-39.179-0.266-16.543-2.1-29.219-10.892-40.637-23.694-17.778-19.933-29.358-42.858-39.256-67.093-12.337-30.206-19.48-62.176-33.068-92.086-11.58-25.491-24.61-50.21-38.12-74.521-19.8-35.63-43.826-68.788-62.504-105.25-14.225-27.769-28.402-55.702-45.391-81.958-7.629-11.79-10-25.938-18.206-37.353-3.322-4.62 0.897-6.545 3.844-8.385 11.154-6.967 24.381-7.499 36.564-11.288 15.383-4.785 31.874-5.752 44.032-18.892 15.579-16.838 37.074-25.262 56.582-36.229 18.728-10.529 32.767-24.029 38.362-45.161 0.754-2.846 2.32-4.2 4.833-5.478 13.751-6.995 27.539-13.803 43.171-15.526 1.809-0.199 4.351 0.407 5.088-1.393 2.719-6.641 9.449-7.016 14.604-9.19 15.628-6.593 28.928-17.28 39.206-29.5 11.044-13.132 19.869-29.107 23.04-46.92 0.469-2.635 0.92-4.852 2.737-7.021 10.353-12.347 18.353-25.39 23.774-41.308 5.981-17.561 4.496-33.331-0.139-49.694-1.514-5.347-0.682-8.403 1.841-13.082 4.367-8.098 12.017-14.976 13.726-23.607 2.847-14.384 2.614-29.234 1.588-44.135-1.147-16.669-6.558-32.446-7.838-49.043-0.829-10.754-3.246-21.244-10.827-30.358-11.465-13.782-22.561-16.986-35.458-6.763-4.121 3.266-9.08 5.311-12.731 9.617-3.065 3.615-8.206 6.729-12.816 7.4-4.043 0.589-4.746-5.83-7.696-8.662-8.318-7.982-9.547-8.9-18.503-1.852-16.192 12.742-34.078 23.212-48.364 38.659-4.962 5.365-11.661 10.248-16.935 15.606-8.368 8.501-19.281 13.995-26.596 23.394-9.565 12.29-20.918 22.982-31.718 33.987-19.327 19.693-37.939 39.933-55.267 61.341-16.469 20.346-32.04 41.419-48.544 61.735-18.709 23.029-33.738 47.925-45.201 75.444-7.016 16.842-13.557 34.168-23.519 49.735-0.709 1.109-0.173 2.943-1.955 3.489-0.157-1.471-0.193-2.968-0.498-4.408-0.609-2.877 1.496-4.888 2.227-7.326 3.274-10.917 6.372-21.712 7.22-33.311 0.512-7 1.573-13.555-0.275-20.585-1.881-7.155 3.96-13.278 4.243-20.305 0.594-14.757 2.075-29.529 7.198-43.332 2.408-6.486-0.888-13.839 3.731-19.187 5.41-6.265 8.009-13.945 11.397-21.084 11.526-24.285 25.646-47.153 37.809-71.073 9.666-19.011 18.345-38.689 20.211-59.957 1.192-13.587 3.834-28.085-3.386-41.365-0.633-1.165-0.633-2.953-0.319-4.31 3.313-14.287 7.17-28.461 10.056-42.831 4.404-21.931 7.105-44.282-4.103-64.872-5.414-9.947-10.535-18.366-1.968-28.601 0.192-0.229 0.064-0.728 0.084-1.102 1.169-22.144-0.26-44.08-9.461-64.514-6.307-14.005-12.827-27.613-15.318-43.078-2.416-15.001-16.744-19.168-29.242-10.127-10.518 7.608-14.322 19.279-19.832 29.916-1.445 2.789-1.068 7.533-4.659 7.847-4.431 0.388-3.627-4.465-4.851-7.388-2.284-5.452-4.929-10.921-9.93-14.502-4.54-3.25-10.209-4.205-13.945 0.039-13.921 15.808-22.851 34.28-27.01 54.995-8.369 41.685-16.828 83.352-25.095 125.06-4.624 23.328-9.22 46.668-13.296 70.095-2.774 15.943-5.039 32.002-6.783 48.09-1.993 18.374-1.86 37.059-4.975 55.211-4.981 29.028-6.448 58.136-6.367 87.448 0.075 26.909-0.021 53.818 0.056 80.727 0.011 4.052 0.195 8.035 1.033 12.153 3.086 15.163 5.46 30.472 7.98 45.747 0.376 2.279 2.99 4.848-0.317 6.971-3.744 2.403-5.531-1.172-7.359-2.956-9.813-9.576-18.619-20.006-26.507-31.279-10.135-14.484-21.303-28.38-24.831-46.312-1.915-9.736-5.996-19.523-3.93-29.426 2.028-9.721 6.042-19.034 4.758-29.265-0.559-4.457 2.793-9.227 5.238-8.63 15.464 3.778 5.982-5.074 4.066-8.32-1.668-2.824-1.255-4.869-0.072-6.956 1.564-2.756 2.585-5.068 0.627-8.161-4.375-6.91-5.949-14.807-7.973-22.639-4.276-16.54-10.868-31.896-24.095-43.748-8.084-7.243-8.908-17.225-6.128-26.899 6.894-23.979-2.631-47.718-24.443-59.266-6.463-3.422-12.976-6.712-17.657-12.788-3.067-3.98-7.584-5.183-12.731-5.511-16.077-1.025-31.583 3.106-47.259 5.15-12.771 1.665-22.606 15.206-22.087 28.625 0.462 11.96-6.789 18.894-15.199 24.112-12.899 8.004-27.014 14.143-39.251 23.203-15.312 11.336-26.929 26.206-30.007 45.13-1.88 11.561-5.442 21.985-10.347 32.249-0.811 1.697-1.494 3.262-1.825 5.138-3.405 19.313-1.064 37.857 6.417 55.986 1.356 3.287 2.474 4.569 5.929 5.122 14.133 2.26 25.185 9.2 30.301 23.084 3.634 9.862 8.659 19.106 9.265 30.254 0.999 18.379 1.755 18.632 19.33 17.481 5.335-0.349 7.876 2.357 8.723 6.123 1.426 6.343 4.765 10.193 10.677 12.418 12.662 4.766 22.077 13.413 29.396 24.659 1.568 2.41 4.19 3.744 7.193 4.853 12.958 4.786 23.431 0.323 33.636-7.377 17.515-13.215 22.531-9.995 31.253 5.557 5.18 9.237 7.518 19.776 10.888 29.839 7.518 22.45 10.889 45.044 10.184 68.554-0.217 7.26-1.994 13.302-8.304 17.03-3.714 2.194-5.418 5.446-5.095 9.011 0.898 9.911-2.474 18.92-4.603 28.269-4.32 18.976-7.135 38.231-10.138 57.463-3.148 20.172 1.023 36.917 17.367 50.245 14.404 11.747 27.105 25.073 38.053 40.358 20.61 28.774 31.315 61.46 39.315 95.195 1.885 7.95 3.066 17.464-1.162 25.181-5.369 9.797-7.523 19.69-7.526 30.778-3e-3 9.236-6.527 14.654-14.582 18.931-7.611 4.04-11.288-0.092-15.635-4.866-1.677-1.842-4.215-2.959-6.474-4.2-9.796-5.379-17.29-13.071-23.718-22.155-7.97-11.263-18.011-20.303-29.028-28.86-14.414-11.196-29.818-20.99-43.972-32.535-11.004-8.975-22.501-17.527-34.59-24.946-16.715-10.259-32.448-21.191-41.727-39.14-1.781-3.445-4.741-5.702-7.042-8.595-2.652-3.335-6.381-4.838-9.891-3.421-7.524 3.037-13.695-0.072-19.656-3.446-32.14-18.194-65.285-34.605-96.266-54.881-7.263-4.753-15.03-9.054-23.704-11.567-12.163-3.523-24.456-2.13-36.621-1.744-6.72 0.213-13.7 2.176-19.609 6.562-29.503 21.895-46.712 50.744-47.978 87.722-1.411 41.231 2.002 82.582-4.398 123.71-2.25 14.458-5.433 26.798-19.896 34.059-6.089 3.057-11.124 8.666-15.896 13.804-9.573 10.308-18.212 21.501-27.998 31.591-19.904 20.522-40.598 40.28-60.441 60.859-23.116 23.973-49.032 44.791-73.61 67.115-20.142 18.295-38.69 38.28-60.074 55.311-24.043 19.149-48.926 37.172-77.115 49.318-26.599 11.461-54.611 19.12-83.433 23.672-19.496 3.08-38.727 7.572-57.439 14.345-8.386 3.035-16.766 5.542-25.035 9.185-7.717 3.4-17.697 4.173-26.791 5.537-13.04 1.956-26.029 4.298-38.977 6.803-10.072 1.948-11.865 7.579-6.72 16.335 10.142 17.262 26.605 22.285 44.783 24.021 18.729 1.788 36.806-4.667 56.059-3.022 20.736 1.771 39.306 7.684 55.594 18.643 25.231 16.976 52.225 22.936 81.761 20.178 5.766-0.538 14.856-1.365 15.612-6.063 1.582-9.825 9.819-17.161 8.162-28.144-1.971-13.065 5.45-23.507 15.89-29.509 18.332-10.538 37.178-20.04 55.205-31.311 13.2-8.253 27.528-15.445 42.031-21.801 12.733-5.58 24.935-12.493 37.923-17.339 25.146-9.383 50.706-17.642 73.79-31.794 9.216-5.65 17.739-12.676 22.185-22.185 8.073-17.264 18.581-32.91 28.434-49.042 2.145-3.512 5.205-3.097 7.453-3.27 2.472-0.19 0.746 3.446 1.428 5.251 3.112 8.225 1.791 16.817 2.277 25.276 0.703 12.211 1.793 24.399 2.567 36.61 1.536 24.24 5.476 48.174 2.16 72.76-2.802 20.776-8.561 40.157-20.561 57.005-9.677 13.586-23.654 23.409-35.846 34.755-9.153 8.518-17.135 18.169-25.37 27.398-5.169 5.793-9 12.683-15.663 17.546-16.551 12.079-31.243 26.82-51.249 33.777-5.639 1.961-7.454 7.244-6.14 12.946 1.274 5.529 5.023 8.435 10.841 9.284 8.349 1.219 16.728 3.061 25.006 3.872 11.665 1.143 23.636 1.959 35.394-1.614 6.023-1.83 8.819-7.447 14.602-9.716 8.736-3.428 17.815-5.551 26.643-8.539 16.941-5.734 32.995-13.532 49.561-20.055 25.712-10.125 50.995-21.131 75.708-33.395 9.471-4.7 14.51-12.633 13.805-24.364-0.39-6.5-4.3-10.797-5.863-16.237-4.75-16.536-13.941-30.878-21.621-45.953-1.247-2.448-2.168-4.604-2.055-7.22 0.748-17.303-2.006-34.726 4.191-51.813 3.732-10.288 2.641-22.267 5.828-32.367 4.499-14.257 7.396-29.14 13.227-42.805 3.649-8.554 2.891-17.916 7.919-26.151 6.627-10.855 12.763-22.23 13.771-35.541 0.67-8.842 9.415-13.857 17.908-11.691 9.698 2.473 17.542 9.584 27.267 11.237 19.561 3.324 38.892 9.025 59.118 7.005 3.865-0.386 8.501 0.968 9.281 4.391 3.457 15.163 14.505 26.097 21.023 39.537 12.362 25.488 15.396 52.883 17.253 80.383 0.844 12.485 6.737 20.907 15.362 28.201 6.276 5.307 13.425 2.431 14.139-5.575 0.398-4.469 2.458-8.357 2.633-12.956 0.451-11.815 9.984-23.256 21.682-26.356 13.864-3.674 27.842-7.834 42.023-0.682 1.843 0.929 4.389 0.475 6.611 0.636 19.016 1.381 37.443-2.047 55.968-5.932 22.272-4.671 44.784-5.634 67.04 0.824 19.303 5.601 38.363 11.991 57.521 18.017 20.702 6.511 42.541 7.497 63.897 2.307 18.181-4.419 37.322-5.678 46.157-28.645 4.646-12.076 14.038-22.797 16.966-36.302 3.097-14.284 9.381-28.168 9.502-42.745 0.363-43.585 2.989-87.396-6.552-130.46-2.201-9.933-1.925-20.101-3.689-29.753-3.032-16.585-4.995-33.412-9.022-49.876-1.353-5.532-2.567-11.473-2.929-17.448-0.982-16.207-3.321-32.332-5.044-48.449-2.358-22.049-0.448-43.946-1.476-65.874-0.076-1.617-0.846-3.98 1.671-4.662 2.224-0.603 3.407 1.194 4.32 2.745 1.111 1.889 1.771 4.037 2.777 5.995 16.819 32.743 24.156 69.165 39.952 102.36 10.718 22.524 20.407 45.638 33.851 66.634 25.481 39.797 48.556 80.537 59.642 127.03 2.559 10.732 3.393 21.97 6.543 32.318 3.976 13.062 31.48 27.774 44.976 22.641 7.863-2.99 16.388-4.285 25.074-3.797 5.803 0.326 12.941-0.195 15.934-4.776 2.95-4.514 4.503-2.764 7.657-1.813 10.624 3.203 21.762 4.403 32.625 3.695 12.085-0.788 24.006-3.991 36.019-6.025 3.515-0.595 6.879-1.389 7.114-5.623 0.195-3.508-2.057-5.386-5.5-5.754-2.921-0.313-5.485-1.824-4.898-4.739 0.5-2.488 3.777-3.178 6.154-3.756 2.126-0.517 4.464-0.359 6.693-0.234 25.709 1.446 50.876-2.051 75.448-9.26 9.411-2.761 19.263-4.883 27.669-10.466 3.885-2.578 7.071-6.343 5.731-10.942zm-855.33-102.61c-2.772 1.65-4.656-0.302-6.58-2.396-6.93-7.545-17.076-7.643-25.941-9.888-16.303-4.128-31.997-11.034-49.125-11.699-2.094-0.081-3.93-0.938-3.619-3.185 0.846-6.114-2.205-11.544-2.594-17.5-1.349-20.64 0.304-41.24 0.106-61.854-0.041-4.27 0.215-8.875 4.13-10.779 4.377-2.129 8.722 0.238 12.13 3.5 13.048 12.489 25.798 25.271 37.709 38.865 7.559 8.626 14.832 17.522 22.728 25.828 7.245 7.623 12.123 15.798 10.326 26.099-0.031 5.84 0.502 10.882 2.267 15.888 0.767 2.179 1.142 5.526-1.537 7.121zm403.6-227.95c-1.888 0.19-3.727-0.276-4.012-2.49-0.139-1.078 0.884-1.757 2.49-1.444 1.116 0.802 2.535 1.82 3.954 2.839-0.809 0.382-1.593 1.01-2.432 1.095zm222.3 326.85c-0.823 0.257-2.327-0.21-2.921-0.895-6.393-7.377-14.719-12.543-18.917-22.504-6.644-15.764-15.899-30.414-19.888-47.352-0.407-1.728-2.165-3.266 0.452-4.306 1.667-0.663 3.012 0.865 3.623 2.009 10.076 18.871 25.76 34.502 31.812 55.757 1.464 5.14 4.998 9.691 7.617 14.583-0.673 1.103-1.046 2.479-1.778 2.708z"/>
</svg>
